<?xml version="1.0" encoding="UTF-8"?>
<svg version="1.1" xmlns="http://www.w3.org/2000/svg" width="800" height="800">
<path d="M0 0 C264 0 528 0 800 0 C800 264 800 528 800 800 C536 800 272 800 0 800 C0 536 0 272 0 0 Z " fill="#0091FF" transform="translate(0,0)"/>
<path d="M0 0 C1.21437955 -0.00128164 1.21437955 -0.00128164 2.45329201 -0.00258917 C5.15712668 -0.00423196 7.86089886 0.00125771 10.56472778 0.00672913 C12.5064748 0.00701128 14.44822192 0.00685271 16.38996887 0.00628662 C21.65598391 0.00599976 26.92197616 0.01187858 32.1879859 0.01886058 C37.69329557 0.02511257 43.19860578 0.02569938 48.70391846 0.02688599 C59.12664285 0.02999385 69.54935676 0.03819992 79.97207654 0.04823548 C91.8389776 0.0594135 103.70587917 0.06491133 115.57278419 0.06993091 C139.98172563 0.08038297 164.39065776 0.09797189 188.79959106 0.12025452 C188.64542973 1.5610741 188.48958863 3.00171403 188.33303833 4.442276 C188.24643448 5.24455124 188.15983063 6.04682648 188.07060242 6.87341309 C187.77145978 9.35347922 187.31559493 11.7530383 186.73709106 14.18275452 C186.5604895 14.93685608 186.38388794 15.69095764 186.20193481 16.46791077 C186.06916138 17.0131842 185.93638794 17.55845764 185.79959106 18.12025452 C185.13959106 18.12025452 184.47959106 18.12025452 183.79959106 18.12025452 C183.65263794 19.23207092 183.65263794 19.23207092 183.50271606 20.36634827 C182.54369493 27.12083335 181.29323458 33.72991153 179.73709106 40.37025452 C179.47557251 41.49645203 179.47557251 41.49645203 179.20877075 42.645401 C177.92779657 47.99204901 177.92779657 47.99204901 176.79959106 49.12025452 C175.32604758 49.2132947 173.84808516 49.23771717 172.37161255 49.23377991 C171.43071274 49.23370438 170.48981293 49.23362885 169.520401 49.23355103 C168.49749466 49.22838974 167.47458832 49.22322845 166.42068481 49.21791077 C165.37888565 49.21649582 164.33708649 49.21508087 163.26371765 49.21362305 C159.92148012 49.20800531 156.5793085 49.19544982 153.23709106 49.18275452 C150.9773264 49.1777418 148.7175607 49.1731785 146.45779419 49.16908264 C140.90503716 49.15803013 135.35231882 49.14127476 129.79959106 49.12025452 C129.53404419 50.32681702 129.26849731 51.53337952 128.99490356 52.77650452 C128.63819047 54.39110061 128.28141638 56.00568322 127.92459106 57.62025452 C127.75056763 58.41173889 127.57654419 59.20322327 127.39724731 60.01869202 C126.27823634 65.07496385 125.07725661 70.10167632 123.79959106 75.12025452 C123.13959106 75.12025452 122.47959106 75.12025452 121.79959106 75.12025452 C121.62568848 75.96003845 121.62568848 75.96003845 121.44827271 76.81678772 C120.92140053 79.35583237 120.39177676 81.89429539 119.86209106 84.43275452 C119.67968872 85.31382874 119.49728638 86.19490295 119.30935669 87.10267639 C119.1321106 87.95023499 118.9548645 88.79779358 118.77224731 89.67103577 C118.60990601 90.45132141 118.4475647 91.23160706 118.28030396 92.03553772 C117.79959106 94.12025452 117.79959106 94.12025452 116.79959106 97.12025452 C116.13959106 97.12025452 115.47959106 97.12025452 114.79959106 97.12025452 C114.43607544 98.96877014 114.43607544 98.96877014 114.06521606 100.85462952 C111.04407427 115.88576118 111.04407427 115.88576118 108.73709106 122.37025452 C105.1958758 132.49001196 103.53702748 142.37941826 103.42459106 153.05775452 C103.40380493 154.22866638 103.40380493 154.22866638 103.38259888 155.42323303 C103.43159566 161.46208652 104.28675663 167.60742008 108.73709106 172.05775452 C114.26642968 174.90620168 120.48084079 174.93763218 126.43240356 173.47181702 C132.73721189 171.26983918 135.33354517 168.7525791 138.79959106 163.12025452 C139.45959106 163.12025452 140.11959106 163.12025452 140.79959106 163.12025452 C141.12959106 161.47025452 141.45959106 159.82025452 141.79959106 158.12025452 C142.45959106 158.12025452 143.11959106 158.12025452 143.79959106 158.12025452 C143.79959106 157.46025452 143.79959106 156.80025452 143.79959106 156.12025452 C147.42959106 156.12025452 151.05959106 156.12025452 154.79959106 156.12025452 C151.95417383 169.69070595 151.95417383 169.69070595 149.79959106 175.12025452 C149.13959106 175.45025452 148.47959106 175.78025452 147.79959106 176.12025452 C146.74606264 178.429913 145.74240011 180.76323191 144.79959106 183.12025452 C144.13959106 183.12025452 143.47959106 183.12025452 142.79959106 183.12025452 C142.61396606 183.78025452 142.42834106 184.44025452 142.23709106 185.12025452 C137.48915055 195.02899994 127.10903738 203.36680485 117.04959106 207.44447327 C113.31062617 208.56746099 109.69023572 208.87322946 105.79959106 209.12025452 C105.79959106 209.78025452 105.79959106 210.44025452 105.79959106 211.12025452 C100.93695275 212.74113395 95.95449398 212.34666493 90.86209106 212.37025452 C89.24463989 212.40119202 89.24463989 212.40119202 87.59451294 212.43275452 C80.07147974 212.46881459 72.90231586 211.76491054 65.79959106 209.12025452 C65.46959106 208.46025452 65.13959106 207.80025452 64.79959106 207.12025452 C63.60334106 206.60462952 62.40709106 206.08900452 61.17459106 205.55775452 C54.98562487 202.57458376 51.05441347 197.39696685 48.62380981 191.04994202 C47.31771791 185.96697661 47.46098343 180.77275445 47.48709106 175.55775452 C47.48838013 174.49814514 47.48966919 173.43853577 47.49099731 172.34681702 C47.58964653 164.26744638 48.49933046 156.89732609 50.79959106 149.12025452 C51.45959106 149.12025452 52.11959106 149.12025452 52.79959106 149.12025452 C52.94396606 147.88275452 53.08834106 146.64525452 53.23709106 145.37025452 C53.58647608 142.55520952 54.00338473 139.85010482 54.79959106 137.12025452 C55.45959106 137.12025452 56.11959106 137.12025452 56.79959106 137.12025452 C56.92914185 136.26367249 56.92914185 136.26367249 57.06130981 135.38978577 C58.15341369 129.08764503 60.11695933 123.49566975 62.50271606 117.57337952 C64.26922889 112.86977309 65.54771133 108.07440995 66.80740356 103.21400452 C67.79959106 100.12025452 67.79959106 100.12025452 69.21755981 97.85853577 C71.58798101 93.75565859 72.68838017 89.3452259 73.98709106 84.80775452 C74.25972778 83.87640686 74.5323645 82.9450592 74.81326294 81.98548889 C75.48167136 79.69882851 76.14355576 77.41048935 76.79959106 75.12025452 C77.45959106 75.12025452 78.11959106 75.12025452 78.79959106 75.12025452 C79.78959106 70.83025452 80.77959106 66.54025452 81.79959106 62.12025452 C82.45959106 62.12025452 83.11959106 62.12025452 83.79959106 62.12025452 C83.98521606 61.09931702 83.98521606 61.09931702 84.17459106 60.05775452 C84.88759231 56.70664866 85.8583642 53.41454856 86.79959106 50.12025452 C72.27959106 50.12025452 57.75959106 50.12025452 42.79959106 50.12025452 C42.13959106 53.09025452 41.47959106 56.06025452 40.79959106 59.12025452 C39.82942292 61.79791859 38.83400848 64.46674896 37.79959106 67.12025452 C37.44822018 68.44894838 37.10992589 69.78138141 36.79959106 71.12025452 C36.13959106 71.12025452 35.47959106 71.12025452 34.79959106 71.12025452 C34.53404419 72.32681702 34.26849731 73.53337952 33.99490356 74.77650452 C33.63819047 76.39110061 33.28141638 78.00568322 32.92459106 79.62025452 C32.66355591 80.80748108 32.66355591 80.80748108 32.39724731 82.01869202 C31.27823634 87.07496385 30.07725661 92.10167632 28.79959106 97.12025452 C28.13959106 97.12025452 27.47959106 97.12025452 26.79959106 97.12025452 C26.53404419 98.41060608 26.26849731 99.70095764 25.99490356 101.03041077 C25.63826915 102.74788702 25.28149067 104.46533336 24.92459106 106.18275452 C24.66355591 107.45409241 24.66355591 107.45409241 24.39724731 108.75111389 C23.38397421 113.61107195 22.23154442 118.36642737 20.79959106 123.12025452 C20.13959106 123.12025452 19.47959106 123.12025452 18.79959106 123.12025452 C18.60623169 124.12185608 18.41287231 125.12345764 18.21365356 126.15541077 C17.95079058 127.4978896 17.68776081 128.84033578 17.42459106 130.18275452 C17.29826294 130.83953186 17.17193481 131.4963092 17.04177856 132.17298889 C16.175746 136.56810417 15.08332553 140.82811622 13.79959106 145.12025452 C13.13959106 145.12025452 12.47959106 145.12025452 11.79959106 145.12025452 C11.57271606 146.33712952 11.34584106 147.55400452 11.11209106 148.80775452 C8.79601944 159.10140619 4.24427722 168.47603126 -0.56369019 177.79994202 C-2.41710146 181.55984555 -3.90951697 185.36876029 -5.27853394 189.32728577 C-6.20040894 191.12025452 -6.20040894 191.12025452 -9.20040894 192.12025452 C-9.87482025 193.78380241 -10.54044103 195.45092394 -11.20040894 197.12025452 C-13.07540894 199.18275452 -13.07540894 199.18275452 -15.20040894 201.12025452 C-15.81915894 201.80087952 -16.43790894 202.48150452 -17.07540894 203.18275452 C-20.42112018 206.23325594 -23.63202478 208.12025452 -28.20040894 208.12025452 C-28.20040894 208.78025452 -28.20040894 209.44025452 -28.20040894 210.12025452 C-37.35406004 213.52626423 -48.99047853 213.44413918 -58.20040894 210.12025452 C-60.95040894 207.93275452 -60.95040894 207.93275452 -63.20040894 205.12025452 C-63.71474487 204.5569342 -64.22908081 203.99361389 -64.75900269 203.41322327 C-71.29975283 196.21369253 -71.74352024 189.67066124 -71.50119019 180.22181702 C-70.86678921 168.5728575 -61.11716219 160.81709796 -53.20040894 153.12025452 C-43.77848293 143.79546177 -35.09343805 134.39666313 -27.96212769 123.17103577 C-27.08019739 121.7952245 -26.14695775 120.45243432 -25.20040894 119.12025452 C-24.54040894 119.12025452 -23.88040894 119.12025452 -23.20040894 119.12025452 C-22.93228394 118.23337952 -22.66415894 117.34650452 -22.38790894 116.43275452 C-19.6716733 108.8558867 -19.6716733 108.8558867 -16.20040894 107.12025452 C-15.27604192 105.00371323 -14.43348413 102.85099378 -13.63790894 100.68275452 C-11.23838362 94.19620388 -11.23838362 94.19620388 -10.20040894 92.12025452 C-9.54040894 92.12025452 -8.88040894 92.12025452 -8.20040894 92.12025452 C-8.01478394 91.03744202 -8.01478394 91.03744202 -7.82540894 89.93275452 C-7.20991584 87.16303557 -6.31596519 84.72321912 -5.20040894 82.12025452 C-4.54040894 82.12025452 -3.88040894 82.12025452 -3.20040894 82.12025452 C-2.97353394 80.96525452 -2.74665894 79.81025452 -2.51290894 78.62025452 C-0.90706371 71.31776126 1.51343388 64.23177401 3.79959106 57.12025452 C4.45959106 57.12025452 5.11959106 57.12025452 5.79959106 57.12025452 C6.12959106 54.81025452 6.45959106 52.50025452 6.79959106 50.12025452 C-25.4202097 49.31036729 -25.4202097 49.31036729 -53.20040894 63.12025452 C-55.53145934 66.31712365 -57.54225855 69.52759535 -59.20040894 73.12025452 C-61.18040894 72.79025452 -63.16040894 72.46025452 -65.20040894 72.12025452 C-66.64894441 68.28534969 -65.70637079 65.74159536 -64.45040894 61.93275452 C-64.07915894 60.79064514 -63.70790894 59.64853577 -63.32540894 58.47181702 C-62.76853394 56.81279358 -62.76853394 56.81279358 -62.20040894 55.12025452 C-61.89103394 54.17923889 -61.58165894 53.23822327 -61.26290894 52.26869202 C-60.58518169 50.21596045 -59.89440506 48.16754309 -59.20040894 46.12025452 C-58.54040894 46.12025452 -57.88040894 46.12025452 -57.20040894 46.12025452 C-57.00704956 45.51697327 -56.81369019 44.91369202 -56.61447144 44.29212952 C-56.35408081 43.49291077 -56.09369019 42.69369202 -55.82540894 41.87025452 C-55.57017456 41.08134827 -55.31494019 40.29244202 -55.05197144 39.47962952 C-54.24867227 37.25397494 -53.30329232 35.21093779 -52.20040894 33.12025452 C-51.54040894 33.12025452 -50.88040894 33.12025452 -50.20040894 33.12025452 C-49.95935425 32.24498108 -49.71829956 31.36970764 -49.46994019 30.46791077 C-48.08515746 26.81634523 -46.40299631 24.52936195 -43.88790894 21.55775452 C-43.12865112 20.64896545 -42.36939331 19.74017639 -41.58712769 18.80384827 C-37.8702677 14.624662 -34.47884466 10.96356055 -29.51290894 8.30775452 C-28.36242065 7.67933655 -28.36242065 7.67933655 -27.18869019 7.03822327 C-25.20040894 6.12025452 -25.20040894 6.12025452 -23.20040894 6.12025452 C-23.20040894 5.46025452 -23.20040894 4.80025452 -23.20040894 4.12025452 C-21.82749026 3.63515658 -20.4519419 3.15749938 -19.07540894 2.68275452 C-17.92685425 2.28250061 -17.92685425 2.28250061 -16.75509644 1.87416077 C-11.19203229 0.23246141 -5.76559971 -0.02242108 0 0 Z " fill="#FBFCFF" transform="translate(421.2004089355469,276.87974548339844)"/>
<path d="M0 0 C1.76923828 0.01353516 1.76923828 0.01353516 3.57421875 0.02734375 C4.47785156 0.03894531 5.38148438 0.05054688 6.3125 0.0625 C5.61093593 7.21845346 4.00464979 14.08105181 2.3125 21.0625 C1.6525 21.0625 0.9925 21.0625 0.3125 21.0625 C0.126875 22.795 0.126875 22.795 -0.0625 24.5625 C-0.59028885 28.84600375 -1.57148037 32.89602672 -2.6875 37.0625 C-3.3475 37.0625 -4.0075 37.0625 -4.6875 37.0625 C-4.790625 38.135 -4.89375 39.2075 -5 40.3125 C-5.6974734 46.01537077 -7.21826782 51.51822761 -8.6875 57.0625 C-9.3475 57.0625 -10.0075 57.0625 -10.6875 57.0625 C-10.831875 58.09375 -10.97625 59.125 -11.125 60.1875 C-11.60410457 63.48799813 -12.12625083 66.77518341 -12.6875 70.0625 C-12.3575 69.4025 -12.0275 68.7425 -11.6875 68.0625 C-11.0275 68.0625 -10.3675 68.0625 -9.6875 68.0625 C-9.41550781 67.33804688 -9.14351563 66.61359375 -8.86328125 65.8671875 C-5.74690247 58.43343346 -0.8861326 50.2398737 4.85546875 44.52734375 C6.5219111 42.85196605 7.66754619 40.97837478 8.94921875 39.00390625 C17.19427268 27.26238246 28.17151489 14.35922203 41.3125 8.0625 C41.9725 8.0625 42.6325 8.0625 43.3125 8.0625 C43.6425 7.0725 43.9725 6.0825 44.3125 5.0625 C52.68099133 1.07178404 62.15882487 -0.18114497 71.3125 1.0625 C75.43872646 2.73022544 78.15667187 4.53080848 81 7.9375 C81.56074219 8.59492188 82.12148438 9.25234375 82.69921875 9.9296875 C83.23160156 10.63351562 83.76398438 11.33734375 84.3125 12.0625 C84.86808594 12.78695313 85.42367187 13.51140625 85.99609375 14.2578125 C87.85754238 18.22374756 87.75961184 21.73364327 87.6875 26.0625 C87.67879883 27.31703979 87.67879883 27.31703979 87.66992188 28.59692383 C87.52239044 35.72419494 86.37559243 42.22236618 84.3125 49.0625 C83.6525 49.0625 82.9925 49.0625 82.3125 49.0625 C82.1578125 50.795 82.1578125 50.795 82 52.5625 C81.7372692 55.50508494 81.06954515 57.6863223 79.984375 60.47265625 C77.20418443 67.63458731 75.75486282 75.24525955 74.00585938 82.70898438 C72.35572151 89.54106967 70.41871264 95.75954446 67.3125 102.0625 C65.12360223 106.95208818 63.94579244 112.05954368 62.6875 117.25 C62.45804688 118.14525391 62.22859375 119.04050781 61.9921875 119.96289062 C60.50428172 126.09607366 60.0213264 131.75969826 60.3125 138.0625 C65.37160062 137.71359651 67.7088516 135.06473798 70.875 131.4375 C71.57786133 130.67373047 71.57786133 130.67373047 72.29492188 129.89453125 C74.74523883 127.15977191 76.74974565 124.45005414 78.53125 121.234375 C80.3125 118.0625 80.3125 118.0625 82.25 116.9375 C85.17230439 117.11460936 86.9442436 118.4178775 89.3125 120.0625 C88.22822337 126.83922897 84.0254243 131.45917859 79.3125 136.0625 C77.55171549 138.27258815 75.84654519 140.51689229 74.15625 142.78125 C70.16466747 147.71998771 65.79775434 151.35133137 60.5 154.75 C59.92185547 155.13994141 59.34371094 155.52988281 58.74804688 155.93164062 C54.38429915 158.75240573 50.40062105 160.01576883 45.3125 161.0625 C45.3125 161.7225 45.3125 162.3825 45.3125 163.0625 C42.60389335 163.11679278 39.89639099 163.15631211 37.1875 163.1875 C36.42695313 163.20425781 35.66640625 163.22101563 34.8828125 163.23828125 C29.06989542 163.2883926 24.38216506 163.07945712 20.01171875 158.8203125 C19.34785156 157.95148438 18.68398437 157.08265625 18 156.1875 C17.32324219 155.32382812 16.64648438 154.46015625 15.94921875 153.5703125 C11.26854543 146.39849323 13.07563221 137.6590708 14.6965332 129.71899414 C16.95439984 119.13680047 16.95439984 119.13680047 18.3125 115.0625 C18.9725 115.0625 19.6325 115.0625 20.3125 115.0625 C20.49425781 113.61617187 20.49425781 113.61617187 20.6796875 112.140625 C20.84726563 110.87734375 21.01484375 109.6140625 21.1875 108.3125 C21.34992188 107.05953125 21.51234375 105.8065625 21.6796875 104.515625 C22.2183355 101.57633592 22.79258841 99.59142853 24.3125 97.0625 C24.9725 97.0625 25.6325 97.0625 26.3125 97.0625 C26.26480469 96.1240625 26.21710938 95.185625 26.16796875 94.21875 C26.17178004 89.16752457 27.4206989 84.44181735 28.625 79.5625 C28.83833984 78.65113281 29.05167969 77.73976563 29.27148438 76.80078125 C30.21588657 72.89349338 31.21139068 69.2966618 32.80859375 65.59765625 C34.82927231 60.8477495 35.92665258 56.02394053 37.0625 51 C37.29582031 50.03255859 37.52914062 49.06511719 37.76953125 48.06835938 C38.90770459 43.08970293 39.70850211 39.11023934 38.3125 34.0625 C32.02519896 34.17519746 32.02519896 34.17519746 26.75 37.25 C25.945625 38.178125 25.14125 39.10625 24.3125 40.0625 C23.03861614 41.02402428 21.74513547 41.9599052 20.4375 42.875 C14.07173085 47.56241194 9.44010661 53.35791236 5.55078125 60.203125 C4.3125 62.0625 4.3125 62.0625 2.40234375 63.96484375 C-5.55991101 71.95686395 -10.57967071 83.11853446 -15.6875 93.0625 C-16.3475 93.0625 -17.0075 93.0625 -17.6875 93.0625 C-17.85765625 93.71476562 -18.0278125 94.36703125 -18.203125 95.0390625 C-18.44546875 95.91304688 -18.6878125 96.78703125 -18.9375 97.6875 C-19.28554687 98.97527344 -19.28554687 98.97527344 -19.640625 100.2890625 C-20.6875 103.0625 -20.6875 103.0625 -22.59375 105.59375 C-25.94259237 110.37935377 -26.69770712 116.33313013 -27.9375 121.9375 C-28.205625 123.1028125 -28.47375 124.268125 -28.75 125.46875 C-29.40691134 128.33100657 -30.05233633 131.19535338 -30.6875 134.0625 C-31.3475 134.0625 -32.0075 134.0625 -32.6875 134.0625 C-32.79707031 134.83851563 -32.90664062 135.61453125 -33.01953125 136.4140625 C-33.17808594 137.49429688 -33.33664063 138.57453125 -33.5 139.6875 C-33.65082031 140.73164063 -33.80164063 141.77578125 -33.95703125 142.8515625 C-35.01609482 148.95675247 -36.38918093 155.00367769 -37.6875 161.0625 C-52.5375 161.0625 -67.3875 161.0625 -82.6875 161.0625 C-81.99528317 154.83254856 -81.2847643 149.91913575 -79.6875 144.0625 C-79.0275 144.0625 -78.3675 144.0625 -77.6875 144.0625 C-77.57792969 143.51464844 -77.46835938 142.96679688 -77.35546875 142.40234375 C-77.01166858 140.68334289 -76.66645623 138.96462423 -76.3203125 137.24609375 C-75.86776363 134.96938186 -75.42629798 132.6904557 -74.9921875 130.41015625 C-73.59198237 123.15119807 -72.01659425 116.08281955 -69.6875 109.0625 C-69.0275 109.0625 -68.3675 109.0625 -67.6875 109.0625 C-67.63851562 108.4334375 -67.58953125 107.804375 -67.5390625 107.15625 C-67.05314801 101.59336686 -66.18196374 96.44256948 -64.6875 91.0625 C-64.0275 91.0625 -63.3675 91.0625 -62.6875 91.0625 C-62.5735791 90.47549316 -62.4596582 89.88848633 -62.34228516 89.28369141 C-61.03527218 82.63938366 -59.57801782 76.03705146 -58.0625 69.4375 C-57.83304688 68.43332031 -57.60359375 67.42914063 -57.3671875 66.39453125 C-56.80849308 63.95024315 -56.24857946 61.50624151 -55.6875 59.0625 C-55.0275 59.0625 -54.3675 59.0625 -53.6875 59.0625 C-53.56375 57.45375 -53.56375 57.45375 -53.4375 55.8125 C-52.9779446 52.00765161 -51.9433365 48.61735514 -50.6875 45 C-48.23759424 37.92545328 -47.435108 31.5080639 -47.6875 24.0625 C-48.1825 23.0725 -48.1825 23.0725 -48.6875 22.0625 C-51.38547102 21.42389231 -54.02116623 20.89424758 -56.75 20.4375 C-57.50861328 20.3034375 -58.26722656 20.169375 -59.04882812 20.03125 C-60.92702258 19.70049878 -62.80710338 19.38049266 -64.6875 19.0625 C-64.3575 16.4225 -64.0275 13.7825 -63.6875 11.0625 C-57.36270978 9.28738199 -51.22488018 8.48754164 -44.6875 7.9375 C-43.23923828 7.80794922 -43.23923828 7.80794922 -41.76171875 7.67578125 C-39.40408324 7.46569492 -37.04610143 7.26139508 -34.6875 7.0625 C-34.6875 6.4025 -34.6875 5.7425 -34.6875 5.0625 C-33.57507935 4.88859741 -33.57507935 4.88859741 -32.44018555 4.71118164 C-29.08470196 4.18510449 -25.72985041 3.65509938 -22.375 3.125 C-20.62413086 2.85139648 -20.62413086 2.85139648 -18.83789062 2.57226562 C-17.71962891 2.39501953 -16.60136719 2.21777344 -15.44921875 2.03515625 C-14.41756592 1.87281494 -13.38591309 1.71047363 -12.32299805 1.54321289 C-3.66350446 -0.03627232 -3.66350446 -0.03627232 0 0 Z " fill="#F9FBFF" transform="translate(234.6875,322.9375)"/>
<path d="M0 0 C0 0.66 0 1.32 0 2 C-0.84304688 2.26554687 -1.68609375 2.53109375 -2.5546875 2.8046875 C-4.19824219 3.33449219 -4.19824219 3.33449219 -5.875 3.875 C-6.96554687 4.22304688 -8.05609375 4.57109375 -9.1796875 4.9296875 C-12.08522723 5.81175231 -12.08522723 5.81175231 -14 8 C-17.81153333 9.06003697 -21.45484375 9.11632775 -25.39453125 9.09765625 C-26.59658203 9.09443359 -27.79863281 9.09121094 -29.03710938 9.08789062 C-30.28298828 9.07951172 -31.52886719 9.07113281 -32.8125 9.0625 C-34.07771484 9.05798828 -35.34292969 9.05347656 -36.64648438 9.04882812 C-39.7643711 9.03706251 -42.88216133 9.02062272 -46 9 C-46 8.67 -46 8.34 -46 8 C-36.76 7.67 -27.52 7.34 -18 7 C-18 6.34 -18 5.68 -18 5 C-17.18015625 4.80664062 -16.3603125 4.61328125 -15.515625 4.4140625 C-14.43796875 4.15367187 -13.3603125 3.89328125 -12.25 3.625 C-10.64898438 3.24214844 -10.64898438 3.24214844 -9.015625 2.8515625 C-5.93187876 1.98076369 -3.17018656 0 0 0 Z " fill="#75B1FF" transform="translate(545,481)"/>
<path d="M0 0 C0.33 0 0.66 0 1 0 C1 1.65 1 3.3 1 5 C2.32 4.67 3.64 4.34 5 4 C3.68 6.31 2.36 8.62 1 11 C0.34 11 -0.32 11 -1 11 C-1.66 12.32 -2.32 13.64 -3 15 C-2.44854729 9.76119922 -1.57077907 5.02649303 0 0 Z " fill="#6CADFF" transform="translate(224,380)"/>
<path d="M0 0 C0.66 0.33 1.32 0.66 2 1 C0.90344712 2.31886772 -0.20253423 3.62990057 -1.3125 4.9375 C-1.92738281 5.66839844 -2.54226563 6.39929688 -3.17578125 7.15234375 C-5 9 -5 9 -8 10 C-6.44303593 6.17836093 -3.96591316 3.81381505 -1 1 C-0.67 0.67 -0.34 0.34 0 0 Z " fill="#C2D8FF" transform="translate(388,287)"/>
</svg>
